# xmcd
# Copyright (C) 1995-1998 Ti Kan
#
# Track frame offsets:
#       150
#       18142
#       32347
#       49975
#       62832
#       76237
#       90587
#       102897
#       115442
#       131432
#       145842
#       159250
#       172845
#       185072
#       207927
#       221277
#       240672
#       252822
#       263532
#       275307
#       286812
#       297815
#       311082
#       321647
#
# Disc length: 4531 seconds
#
# Revision: 0
# Processed by: cddbd v1.5.2PL0 Copyright (c) Steve Scherf et al.
# Submitted via: CD-Import v1.0
#
DISCID=4d11b118
DTITLE=Norman Greenbaum - Spirit In The Sky - The Best Of Norman Greenbaum
DYEAR=1997
DGENRE=
TTITLE0=Spirit In The Sky
TTITLE1=California Earthquake
TTITLE2=Lucille Got Stealed
TTITLE3=Canned Ham
TTITLE4=Tars Of India
TTITLE5=Marcy
TTITLE6=Hook And Ladder
TTITLE7=Rhode Island Red
TTITLE8=Junior Cadillac
TTITLE9=Skyline
TTITLE10=Jubilee
TTITLE11=Milk Cow
TTITLE12=Back Home Again
TTITLE13=Titfield Thunder
TTITLE14=Damper
TTITLE15=I.j. Fox
TTITLE16=Petaluma
TTITLE17=Country Lad
TTITLE18=The Day The Well Went Dry
TTITLE19=Jigsaw
TTITLE20=Weird
TTITLE21=Daddy I Know
TTITLE22=Gondoliers, Shakespeares, Overseers, Playboys and Bum
TTITLE23=The Day They Sold Beer In Church
EXTD=
EXTT0=
EXTT1=
EXTT2=
EXTT3=
EXTT4=
EXTT5=
EXTT6=
EXTT7=
EXTT8=
EXTT9=
EXTT10=
EXTT11=
EXTT12=
EXTT13=
EXTT14=
EXTT15=
EXTT16=
EXTT17=
EXTT18=
EXTT19=
EXTT20=
EXTT21=
EXTT22=
EXTT23=
PLAYORDER=
